<svg width="737" height="296" viewBox="0 0 737 296" fill="none" xmlns="http://www.w3.org/2000/svg">
<path fill-rule="evenodd" clip-rule="evenodd" d="M732.667 16.0809C731.026 4.48075 716.955 1.35907 711.242 1H16.5C17.2142 3.87255 18.167 13.7621 19.2113 33C21.6713 78.3137 21.3485 87.6155 20.1661 121.692C19.8872 129.728 19.5606 139.142 19.2113 150.732C17.5817 204.808 12.0802 235.847 7.12162 263.823C6.86484 265.272 6.60952 266.712 6.35628 268.147L2 294H698.387C698.697 294 699.144 294.024 699.705 294.055C703.023 294.237 710.334 294.637 717 291.5C725.5 287.5 728.5 282 730 268.5C730.158 267.081 730.347 265.528 730.56 263.783L730.561 263.775C732.374 248.919 735.881 220.181 735.881 142.114C735.881 54.8603 734 25.5 732.667 16.0809ZM94.1385 81.0646L92.0091 22.766C91.6936 14.1291 99.6854 12.6897 103.721 13.0495H115.432C127.144 13.0495 128.919 17.3679 129.274 19.5271C129.628 20.6068 130.551 25.1411 131.403 34.6416C133.532 63.7909 133.532 67.0297 131.403 95.0994C129.274 123.169 122.885 135.045 118.627 141.522C114.368 148 99.462 148 97.3326 148C95.2032 148 94.1385 146.92 94.1385 144.761V81.0646ZM94.0794 154.776C94.0905 164.418 94.1177 188.019 90.8981 216.437C87.5059 246.378 85.2445 262.418 84.5378 266.696C83.4777 270.617 83.2657 278.672 90.8981 279.528C98.5305 280.383 110.332 279.884 115.279 279.528C117.046 279.171 121.004 276.961 122.7 270.973C124.702 263.903 124.735 263.511 125.7 251.775C125.756 251.086 125.816 250.357 125.88 249.586C127.186 233.777 127.687 227.707 127.88 221.626C128 217.836 128 214.042 128 207.883C128 186.496 126.599 175.406 120.58 160.832C115.279 148 107.859 148 101.499 148C95.1383 148 94.128 149.069 94.0782 153.347C94.0782 153.782 94.0788 154.259 94.0794 154.776Z" fill="#5B65A4"/>
<path d="M711.242 1L711.305 0.00196908L711.274 0H711.242V1ZM732.667 16.0809L731.677 16.221L731.677 16.221L732.667 16.0809ZM16.5 1V0H15.2209L15.5295 1.24127L16.5 1ZM19.2113 33L18.2128 33.0542L19.2113 33ZM20.1661 121.692L19.1667 121.657L19.1667 121.657L20.1661 121.692ZM19.2113 150.732L18.2118 150.701L19.2113 150.732ZM7.12162 263.823L8.10627 263.997L8.10627 263.997L7.12162 263.823ZM6.35628 268.147L5.37146 267.973L5.37018 267.981L6.35628 268.147ZM2 294L1.0139 293.834L0.817401 295H2V294ZM699.705 294.055L699.76 293.057L699.76 293.057L699.705 294.055ZM730 268.5L729.006 268.39L729.006 268.39L730 268.5ZM730.56 263.783L731.553 263.904L731.554 263.897L730.56 263.783ZM730.561 263.775L729.568 263.654L729.568 263.66L730.561 263.775ZM92.0091 22.766L93.0084 22.7295L93.0084 22.7295L92.0091 22.766ZM94.1385 81.0646H95.1385V81.0463L95.1378 81.0281L94.1385 81.0646ZM103.721 13.0495L103.632 14.0456L103.676 14.0495H103.721V13.0495ZM129.274 19.5271L128.287 19.6893L128.299 19.7658L128.324 19.8394L129.274 19.5271ZM131.403 34.6416L132.4 34.5687L132.4 34.5605L132.399 34.5523L131.403 34.6416ZM131.403 95.0994L132.4 95.1751L132.4 95.1751L131.403 95.0994ZM118.627 141.522L119.462 142.072L119.462 142.072L118.627 141.522ZM90.8981 216.437L91.8917 216.55L91.8917 216.55L90.8981 216.437ZM94.0794 154.776L93.0794 154.777L93.0794 154.777L94.0794 154.776ZM84.5378 266.696L85.5031 266.957L85.5162 266.908L85.5244 266.859L84.5378 266.696ZM115.279 279.528L115.351 280.525L115.415 280.52L115.477 280.508L115.279 279.528ZM122.7 270.973L123.662 271.246L123.662 271.246L122.7 270.973ZM125.7 251.775L124.703 251.693L124.703 251.693L125.7 251.775ZM125.88 249.586L126.876 249.669L126.876 249.669L125.88 249.586ZM127.88 221.626L126.88 221.595L126.88 221.595L127.88 221.626ZM120.58 160.832L121.504 160.45L121.504 160.45L120.58 160.832ZM94.0782 153.347L93.0782 153.335V153.347H94.0782ZM711.179 1.99803C713.941 2.17158 718.743 3.01899 723.025 5.21486C727.297 7.40519 730.918 10.8592 731.677 16.221L733.657 15.9408C732.775 9.70245 728.541 5.79553 723.938 3.43522C719.346 1.08045 714.257 0.187492 711.305 0.00196908L711.179 1.99803ZM16.5 2H711.242V0H16.5V2ZM20.2099 32.9458C19.6874 23.3211 19.1874 16.0272 18.728 10.7758C18.2713 5.55423 17.8497 2.28418 17.4705 0.758726L15.5295 1.24127C15.8645 2.58837 16.2764 5.69936 16.7356 10.9501C17.1923 16.1711 17.6909 23.441 18.2128 33.0542L20.2099 32.9458ZM21.1655 121.727C22.3488 87.6252 22.6716 78.2934 20.2099 32.9458L18.2128 33.0542C20.6709 78.3341 20.3482 87.6059 19.1667 121.657L21.1655 121.727ZM20.2109 150.762C20.5601 139.175 20.8866 129.763 21.1655 121.727L19.1667 121.657C18.8878 129.694 18.5611 139.11 18.2118 150.701L20.2109 150.762ZM8.10627 263.997C13.0684 236.002 18.5791 204.908 20.2109 150.762L18.2118 150.701C16.5843 204.707 11.092 235.693 6.13696 263.648L8.10627 263.997ZM7.34106 268.321C7.59423 266.886 7.84948 265.446 8.10627 263.997L6.13696 263.648C5.8802 265.097 5.62482 266.538 5.37149 267.973L7.34106 268.321ZM2.9861 294.166L7.34237 268.313L5.37018 267.981L1.0139 293.834L2.9861 294.166ZM698.387 293H2V295H698.387V293ZM699.76 293.057C699.212 293.027 698.731 293 698.387 293V295C698.663 295 699.076 295.022 699.651 295.054L699.76 293.057ZM716.574 290.595C710.162 293.613 703.086 293.239 699.76 293.057L699.651 295.054C702.959 295.235 710.507 295.661 717.426 292.405L716.574 290.595ZM729.006 268.39C728.26 275.106 727.152 279.691 725.253 283.073C723.38 286.409 720.689 288.659 716.574 290.595L717.426 292.405C721.811 290.341 724.87 287.841 726.997 284.052C729.098 280.309 730.24 275.394 730.994 268.61L729.006 268.39ZM729.568 263.661C729.355 265.405 729.165 266.964 729.006 268.39L730.994 268.61C731.151 267.198 731.34 265.65 731.553 263.904L729.568 263.661ZM729.568 263.66L729.567 263.668L731.554 263.897L731.555 263.889L729.568 263.66ZM734.881 142.114C734.881 220.143 731.376 248.841 729.569 263.654L731.554 263.896C733.372 248.998 736.881 220.219 736.881 142.114H734.881ZM731.677 16.221C732.998 25.5573 734.881 54.8437 734.881 142.114H736.881C736.881 54.8769 735.002 25.4427 733.657 15.9408L731.677 16.221ZM91.0097 22.8025L93.1391 81.1011L95.1378 81.0281L93.0084 22.7295L91.0097 22.8025ZM103.81 12.0535C101.661 11.8619 98.4335 12.1391 95.7407 13.6638C94.3796 14.4344 93.1416 15.5325 92.2702 17.0574C91.3976 18.5844 90.925 20.4831 91.0097 22.8025L93.0084 22.7295C92.9354 20.7304 93.3435 19.2103 94.0067 18.0496C94.6712 16.8868 95.6242 16.028 96.7261 15.4042C98.9591 14.1398 101.745 13.8773 103.632 14.0456L103.81 12.0535ZM115.432 12.0495H103.721V14.0495H115.432V12.0495ZM130.26 19.365C130.052 18.0952 129.413 16.1995 127.18 14.6561C124.994 13.1443 121.39 12.0495 115.432 12.0495V14.0495C121.187 14.0495 124.326 15.114 126.043 16.3012C127.715 17.4568 128.141 18.7999 128.287 19.6893L130.26 19.365ZM132.399 34.5523C131.548 25.0562 130.618 20.4162 130.224 19.2149L128.324 19.8394C128.638 20.7973 129.555 25.226 130.407 34.7309L132.399 34.5523ZM132.4 95.1751C134.533 67.0541 134.533 63.7656 132.4 34.5687L130.406 34.7145C132.532 63.8162 132.531 67.0053 130.406 95.0238L132.4 95.1751ZM119.462 142.072C123.822 135.44 130.259 123.398 132.4 95.1751L130.406 95.0238C128.288 122.94 121.948 134.649 117.791 140.973L119.462 142.072ZM97.3326 149C98.4072 149 102.74 149.001 107.357 148.175C109.665 147.762 112.081 147.136 114.212 146.18C116.334 145.227 118.253 143.911 119.462 142.072L117.791 140.973C116.871 142.373 115.329 143.486 113.393 144.355C111.464 145.221 109.222 145.809 107.005 146.206C102.572 146.999 98.3873 147 97.3326 147V149ZM93.1385 144.761C93.1385 145.991 93.442 147.099 94.225 147.892C95.0105 148.689 96.1102 149 97.3326 149V147C96.4256 147 95.9282 146.771 95.649 146.488C95.3673 146.202 95.1385 145.69 95.1385 144.761H93.1385ZM93.1385 81.0646V144.761H95.1385V81.0646H93.1385ZM91.8917 216.55C95.1179 188.073 95.0905 164.425 95.0794 154.774L93.0794 154.777C93.0905 164.41 93.1174 187.965 89.9044 216.325L91.8917 216.55ZM85.5244 266.859C86.2355 262.555 88.4992 246.494 91.8917 216.55L89.9044 216.325C86.5126 246.263 84.2535 262.282 83.5511 266.533L85.5244 266.859ZM91.0095 278.534C89.2835 278.34 88.0689 277.751 87.2057 276.971C86.3357 276.185 85.7625 275.151 85.4176 273.979C84.7186 271.604 85.0021 268.81 85.5031 266.957L83.5724 266.435C83.0133 268.503 82.6609 271.696 83.499 274.544C83.9225 275.983 84.6612 277.368 85.8649 278.455C87.0755 279.549 88.6965 280.287 90.7867 280.521L91.0095 278.534ZM115.207 278.53C110.269 278.886 98.5445 279.378 91.0095 278.534L90.7867 280.521C98.5165 281.388 110.396 280.882 115.351 280.525L115.207 278.53ZM121.738 270.701C120.139 276.345 116.465 278.268 115.082 278.547L115.477 280.508C117.627 280.074 121.868 277.578 123.662 271.246L121.738 270.701ZM124.703 251.693C124.219 257.578 123.973 260.566 123.6 262.971C123.232 265.351 122.74 267.162 121.738 270.701L123.662 271.246C124.662 267.714 125.187 265.794 125.577 263.276C125.963 260.783 126.215 257.707 126.696 251.857L124.703 251.693ZM124.883 249.504C124.82 250.275 124.76 251.004 124.703 251.693L126.696 251.857C126.753 251.168 126.813 250.439 126.876 249.669L124.883 249.504ZM126.88 221.595C126.689 227.643 126.19 233.683 124.883 249.504L126.876 249.669C128.182 233.872 128.686 227.77 128.879 221.658L126.88 221.595ZM127 207.883C127 214.047 127 217.823 126.88 221.595L128.879 221.658C129 217.848 129 214.037 129 207.883H127ZM119.655 161.214C125.604 175.616 127 186.558 127 207.883H129C129 186.433 127.595 175.196 121.504 160.45L119.655 161.214ZM101.499 149C104.706 149 107.924 149.014 111.001 150.504C114.034 151.972 117.07 154.956 119.655 161.214L121.504 160.45C118.789 153.876 115.465 150.444 111.872 148.704C108.324 146.986 104.651 147 101.499 147V149ZM95.0782 153.358C95.1033 151.199 95.3963 150.346 96.0276 149.865C96.3742 149.601 96.92 149.373 97.8294 149.22C98.7366 149.067 99.9266 149 101.499 149V147C99.8905 147 98.5691 147.067 97.4965 147.248C96.4261 147.429 95.5236 147.735 94.8164 148.274C93.34 149.397 93.103 151.217 93.0783 153.335L95.0782 153.358ZM95.0794 154.774C95.0788 154.257 95.0782 153.781 95.0782 153.347H93.0782C93.0782 153.783 93.0788 154.26 93.0794 154.777L95.0794 154.774Z" fill="black"/>
<path fill-rule="evenodd" clip-rule="evenodd" d="M727.047 22C726.047 11.9999 720.047 7 712.577 7H35.0898C28.2508 7 26.6911 10.9872 27.0473 13.5001C27.0473 13.8446 27.2361 15.2433 27.5209 17.353L27.5209 17.3531C28.1263 21.8381 29.1655 29.5369 29.7469 37.1538C30.2812 44.1539 30.2812 47.1154 30.2812 49.4039C30.2811 51.6923 30.2811 53.3077 30.8154 57.6154C31.6703 64.5077 36.8708 66.2308 39.3642 66.2308H78.9021C79.0374 66.2308 79.2412 66.1963 79.494 66.1534C81.2379 65.858 85.3137 65.1676 85.3137 72.6923C85.3137 89.488 85.4683 101.141 85.6011 111.15C85.8174 127.452 85.9758 139.39 85.3137 162.077C84.4588 191.369 79.9707 227.41 77.8335 241.769C76.7649 249.308 74.414 266.323 73.5592 274.077C72.7043 281.831 79.4167 285.923 84.0473 287H593.963H707.547C718.233 287 722.051 277 722.547 273C725.397 250.026 729.675 194.385 729.675 138.385C730.743 67.3077 728.047 32.0001 727.047 22ZM94.1385 81.0646L92.0091 22.766C91.6936 14.1291 99.6854 12.6897 103.721 13.0495H115.432C127.144 13.0495 128.919 17.3679 129.274 19.5271C129.628 20.6068 130.551 25.1411 131.403 34.6416C133.532 63.7909 133.532 67.0297 131.403 95.0994C129.274 123.169 122.885 135.045 118.627 141.522C114.368 148 99.462 148 97.3326 148C95.2032 148 94.1385 146.92 94.1385 144.761V81.0646ZM94.0794 154.776C94.0905 164.418 94.1177 188.019 90.8981 216.437C87.5059 246.378 85.2445 262.418 84.5378 266.696C83.4777 270.617 83.2657 278.672 90.8981 279.528C98.5305 280.383 110.332 279.884 115.279 279.528C117.046 279.171 121.004 276.961 122.7 270.973C124.702 263.903 124.735 263.511 125.7 251.775C125.756 251.086 125.816 250.357 125.88 249.586C127.186 233.777 127.687 227.707 127.88 221.626C128 217.836 128 214.042 128 207.883C128 186.496 126.599 175.406 120.58 160.832C115.279 148 107.859 148 101.499 148C95.1383 148 94.128 149.069 94.0783 153.347C94.0783 153.782 94.0788 154.259 94.0794 154.776Z" fill="url(#paint0_linear)"/>
<path d="M27.0473 13.5001H28.0473V13.4295L28.0374 13.3597L27.0473 13.5001ZM27.5209 17.353L28.5132 17.229L28.5119 17.2193L27.5209 17.353ZM27.5209 17.3531L26.5285 17.4771L26.5299 17.4868L27.5209 17.3531ZM29.7469 37.1538L30.744 37.0777L30.744 37.0777L29.7469 37.1538ZM30.8154 57.6154L29.823 57.7385L29.823 57.7385L30.8154 57.6154ZM79.494 66.1534L79.3269 65.1675L79.3269 65.1675L79.494 66.1534ZM85.6011 111.15L86.601 111.136L86.601 111.136L85.6011 111.15ZM85.3137 162.077L84.3141 162.048L84.3141 162.048L85.3137 162.077ZM77.8335 241.769L76.8444 241.622L76.8434 241.629L77.8335 241.769ZM84.0473 287L83.8208 287.974L83.9325 288H84.0473V287ZM722.547 273L723.539 273.123L723.539 273.123L722.547 273ZM729.675 138.385L728.675 138.37L728.675 138.377V138.385H729.675ZM92.0091 22.766L93.0084 22.7295L93.0084 22.7295L92.0091 22.766ZM94.1385 81.0646H95.1385V81.0463L95.1378 81.0281L94.1385 81.0646ZM103.721 13.0495L103.632 14.0456L103.676 14.0495H103.721V13.0495ZM129.274 19.5271L128.287 19.6893L128.299 19.7658L128.324 19.8394L129.274 19.5271ZM131.403 34.6416L132.4 34.5687L132.4 34.5605L132.399 34.5523L131.403 34.6416ZM131.403 95.0994L132.4 95.1751L132.4 95.1751L131.403 95.0994ZM118.627 141.522L119.462 142.072L119.462 142.072L118.627 141.522ZM90.8981 216.437L89.9045 216.325L89.9045 216.325L90.8981 216.437ZM94.0794 154.776L93.0794 154.777L93.0794 154.777L94.0794 154.776ZM84.5378 266.696L85.5031 266.957L85.5162 266.908L85.5244 266.859L84.5378 266.696ZM90.8981 279.528L91.0095 278.534L91.0095 278.534L90.8981 279.528ZM115.279 279.528L115.351 280.525L115.415 280.52L115.477 280.508L115.279 279.528ZM122.7 270.973L123.662 271.246L123.662 271.246L122.7 270.973ZM125.7 251.775L124.703 251.693L124.703 251.693L125.7 251.775ZM125.88 249.586L126.877 249.669L126.877 249.669L125.88 249.586ZM127.88 221.626L126.88 221.595L126.88 221.595L127.88 221.626ZM120.58 160.832L119.655 161.214L119.655 161.214L120.58 160.832ZM94.0783 153.347L93.0783 153.335V153.347H94.0783ZM712.577 8C716.081 8 719.188 9.16786 721.54 11.4652C723.895 13.7671 725.57 17.2796 726.052 22.0995L728.042 21.9005C727.524 16.7203 725.699 12.7329 722.937 10.0347C720.171 7.33211 716.543 6 712.577 6V8ZM35.0898 8H712.577V6H35.0898V8ZM28.0374 13.3597C27.8953 12.3571 28.1366 11.0439 29.1079 9.98302C30.067 8.9355 31.8638 8 35.0898 8V6C31.4769 6 29.0743 7.05812 27.6328 8.63242C26.2036 10.1934 25.8431 12.1302 26.0572 13.6404L28.0374 13.3597ZM28.5119 17.2193C28.3692 16.1626 28.2515 15.2906 28.1694 14.6394C28.1283 14.3137 28.0969 14.049 28.0758 13.8471C28.0653 13.7462 28.0578 13.665 28.0531 13.6023C28.0507 13.5711 28.0492 13.5466 28.0483 13.5281C28.0478 13.5189 28.0476 13.5119 28.0474 13.5069C28.0473 13.5018 28.0473 13.4997 28.0473 13.5001H26.0473C26.0473 13.7511 26.1062 14.264 26.1851 14.8897C26.2686 15.5515 26.3877 16.4337 26.5298 17.4868L28.5119 17.2193ZM28.5131 17.229L28.5131 17.229L26.5286 17.4771L26.5286 17.4771L28.5131 17.229ZM30.744 37.0777C30.1601 29.4281 29.117 21.7025 28.5119 17.2193L26.5299 17.4868C27.1355 21.9738 28.1709 29.6457 28.7498 37.23L30.744 37.0777ZM31.2812 49.4039C31.2812 47.0941 31.2805 44.1069 30.744 37.0777L28.7498 37.23C29.2818 44.2008 29.2812 47.1367 29.2812 49.4039L31.2812 49.4039ZM31.8078 57.4923C31.2798 53.2346 31.2811 51.6616 31.2812 49.4039L29.2812 49.4039C29.2811 51.723 29.2825 53.3807 29.823 57.7385L31.8078 57.4923ZM39.3642 65.2308C38.311 65.2308 36.604 64.8571 35.0764 63.7084C33.5805 62.5836 32.2028 60.6768 31.8078 57.4923L29.823 57.7385C30.2829 61.4462 31.933 63.8471 33.8744 65.307C35.784 66.7429 37.9239 67.2308 39.3642 67.2308V65.2308ZM78.9021 65.2308H39.3642V67.2308H78.9021V65.2308ZM79.3269 65.1675C79.1964 65.1896 79.0974 65.2063 79.0147 65.2179C78.9265 65.2303 78.8977 65.2308 78.9021 65.2308V67.2308C79.1432 67.2308 79.4509 67.175 79.661 67.1394L79.3269 65.1675ZM86.3137 72.6923C86.3137 68.7906 85.2557 66.6277 83.5666 65.6295C81.9708 64.6863 80.15 65.0281 79.3269 65.1675L79.661 67.1394C80.5818 66.9834 81.6708 66.8322 82.549 67.3512C83.3338 67.8151 84.3137 69.0694 84.3137 72.6923H86.3137ZM86.601 111.136C86.4682 101.129 86.3137 89.4811 86.3137 72.6923H84.3137C84.3137 89.4948 84.4684 101.154 84.6012 111.163L86.601 111.136ZM86.3132 162.106C86.976 139.398 86.8174 127.444 86.601 111.136L84.6012 111.163C84.8174 127.46 84.9756 139.381 84.3141 162.048L86.3132 162.106ZM78.8226 241.916C80.9624 227.54 85.4567 191.455 86.3132 162.106L84.3141 162.048C83.4608 191.283 78.979 227.281 76.8444 241.622L78.8226 241.916ZM74.5531 274.187C75.406 266.451 77.7545 249.452 78.8236 241.91L76.8434 241.629C75.7753 249.164 73.4221 266.195 72.5652 273.967L74.5531 274.187ZM84.2738 286.026C82.1015 285.521 79.4432 284.304 77.4494 282.331C75.4824 280.386 74.1641 277.715 74.5531 274.187L72.5652 273.967C72.0994 278.192 73.7098 281.445 76.0429 283.753C78.3493 286.035 81.3625 287.402 83.8208 287.974L84.2738 286.026ZM593.963 286H84.0473V288H593.963V286ZM707.547 286H593.963V288H707.547V286ZM721.555 272.877C721.326 274.72 720.308 278.044 718.081 280.883C715.882 283.688 712.528 286 707.547 286V288C713.252 288 717.15 285.312 719.655 282.117C722.133 278.956 723.272 275.28 723.539 273.123L721.555 272.877ZM728.675 138.385C728.675 194.346 724.399 249.946 721.555 272.877L723.539 273.123C726.394 250.106 730.675 194.423 730.675 138.385H728.675ZM726.052 22.0995C727.047 32.0525 729.743 67.3206 728.675 138.37L730.675 138.4C731.744 67.2948 729.047 31.9476 728.042 21.9005L726.052 22.0995ZM91.0098 22.8025L93.1392 81.1011L95.1378 81.0281L93.0084 22.7295L91.0098 22.8025ZM103.81 12.0535C101.661 11.8619 98.4335 12.1391 95.7407 13.6638C94.3796 14.4344 93.1416 15.5324 92.2702 17.0574C91.3976 18.5844 90.925 20.4831 91.0098 22.8025L93.0084 22.7295C92.9354 20.7304 93.3435 19.2103 94.0067 18.0496C94.6712 16.8868 95.6242 16.028 96.7261 15.4042C98.9592 14.1398 101.745 13.8773 103.632 14.0456L103.81 12.0535ZM115.432 12.0495H103.721V14.0495H115.432V12.0495ZM130.26 19.365C130.052 18.0952 129.413 16.1995 127.181 14.6561C124.994 13.1443 121.39 12.0495 115.432 12.0495V14.0495C121.187 14.0495 124.326 15.114 126.043 16.3012C127.715 17.4568 128.141 18.7999 128.287 19.6893L130.26 19.365ZM132.399 34.5523C131.548 25.0562 130.618 20.4162 130.224 19.2149L128.324 19.8394C128.638 20.7973 129.555 25.226 130.407 34.7309L132.399 34.5523ZM132.4 95.1751C134.533 67.0541 134.533 63.7656 132.4 34.5687L130.406 34.7145C132.532 63.8162 132.531 67.0053 130.406 95.0238L132.4 95.1751ZM119.462 142.072C123.822 135.44 130.259 123.398 132.4 95.1751L130.406 95.0238C128.288 122.94 121.948 134.649 117.791 140.973L119.462 142.072ZM97.3326 149C98.4072 149 102.74 149.001 107.357 148.175C109.665 147.762 112.081 147.136 114.212 146.18C116.334 145.227 118.253 143.911 119.462 142.072L117.791 140.973C116.871 142.373 115.329 143.486 113.393 144.355C111.464 145.221 109.222 145.809 107.005 146.206C102.572 146.999 98.3873 147 97.3326 147V149ZM93.1385 144.761C93.1385 145.991 93.442 147.099 94.225 147.892C95.0105 148.689 96.1102 149 97.3326 149V147C96.4256 147 95.9282 146.771 95.649 146.488C95.3673 146.202 95.1385 145.69 95.1385 144.761H93.1385ZM93.1385 81.0646V144.761H95.1385V81.0646H93.1385ZM91.8918 216.55C95.118 188.073 95.0905 164.425 95.0794 154.774L93.0794 154.777C93.0905 164.41 93.1174 187.965 89.9045 216.325L91.8918 216.55ZM85.5244 266.859C86.2355 262.555 88.4992 246.494 91.8918 216.55L89.9045 216.325C86.5126 246.263 84.2535 262.282 83.5512 266.533L85.5244 266.859ZM91.0095 278.534C89.2835 278.34 88.0689 277.751 87.2057 276.971C86.3357 276.185 85.7625 275.151 85.4176 273.979C84.7186 271.604 85.0021 268.81 85.5031 266.957L83.5724 266.435C83.0134 268.503 82.6609 271.696 83.499 274.544C83.9226 275.983 84.6612 277.368 85.8649 278.455C87.0755 279.549 88.6965 280.287 90.7867 280.521L91.0095 278.534ZM115.208 278.53C110.269 278.886 98.5445 279.378 91.0095 278.534L90.7867 280.521C98.5165 281.388 110.396 280.882 115.351 280.525L115.208 278.53ZM121.738 270.701C120.139 276.345 116.465 278.268 115.082 278.547L115.477 280.508C117.627 280.074 121.868 277.578 123.662 271.246L121.738 270.701ZM124.703 251.693C124.219 257.578 123.973 260.566 123.6 262.971C123.232 265.351 122.74 267.162 121.738 270.701L123.662 271.246C124.662 267.714 125.187 265.794 125.577 263.276C125.963 260.783 126.215 257.707 126.696 251.857L124.703 251.693ZM124.883 249.504C124.82 250.275 124.76 251.004 124.703 251.693L126.696 251.857C126.753 251.168 126.813 250.439 126.877 249.669L124.883 249.504ZM126.88 221.595C126.689 227.643 126.19 233.683 124.883 249.504L126.877 249.669C128.182 233.872 128.686 227.77 128.879 221.658L126.88 221.595ZM127 207.883C127 214.047 127 217.823 126.88 221.595L128.879 221.658C129 217.848 129 214.037 129 207.883H127ZM119.655 161.214C125.604 175.616 127 186.558 127 207.883H129C129 186.433 127.595 175.196 121.504 160.45L119.655 161.214ZM101.499 149C104.706 149 107.924 149.014 111.001 150.504C114.034 151.972 117.07 154.956 119.655 161.214L121.504 160.45C118.789 153.876 115.465 150.444 111.872 148.704C108.324 146.986 104.651 147 101.499 147V149ZM95.0782 153.358C95.1033 151.199 95.3963 150.346 96.0276 149.865C96.3742 149.601 96.92 149.373 97.8294 149.22C98.7366 149.067 99.9266 149 101.499 149V147C99.8906 147 98.5691 147.067 97.4965 147.248C96.4261 147.429 95.5236 147.735 94.8164 148.274C93.34 149.397 93.103 151.217 93.0783 153.335L95.0782 153.358ZM95.0794 154.774C95.0788 154.257 95.0783 153.781 95.0783 153.347H93.0783C93.0783 153.783 93.0788 154.26 93.0794 154.777L95.0794 154.774Z" fill="#3F3F3F"/>
<defs>
<linearGradient id="paint0_linear" x1="378.46" y1="7" x2="378.46" y2="287" gradientUnits="userSpaceOnUse">
<stop stop-color="#858FCE"/>
<stop offset="1" stop-color="#6475BC"/>
</linearGradient>
</defs>
</svg>
